<?xml version="1.0" encoding="UTF-8" standalone="no"?>
<svg width="45px" height="52px" viewBox="0 0 45 52" version="1.1" xmlns="http://www.w3.org/2000/svg" xmlns:xlink="http://www.w3.org/1999/xlink" xmlns:sketch="http://www.bohemiancoding.com/sketch/ns">
    <!-- Generator: Sketch 3.4.4 (17249) - http://www.bohemiancoding.com/sketch -->
    <title>icon-nodejs_small-link</title>
    <desc>Created with Sketch.</desc>
    <defs></defs>
    <g id="Page-1" stroke="none" stroke-width="1" fill="none" fill-rule="evenodd" sketch:type="MSPage">
        <g id="Desktop-HD" sketch:type="MSArtboardGroup" transform="translate(-766.000000, -2683.000000)" fill="#EF8E8E">
            <g id="Group" sketch:type="MSLayerGroup" transform="translate(232.000000, 2680.000000)">
                <g id="Node" transform="translate(532.168142, 2.416667)" sketch:type="MSShapeGroup">
                    <g id="icon-nodejs_small-link">
                        <g id="icon-nodejs_small">
                            <path d="M24.0668576,52.3671218 C23.4031601,52.3671218 22.741432,52.1871731 22.1584811,51.8375 L16.0808238,48.1035641 C15.1748866,47.5780321 15.618008,47.3899038 15.9173612,47.2815256 C17.1265905,46.8459679 17.3727691,46.7457692 18.662745,45.9830321 C18.7986356,45.9053269 18.9758842,45.9339551 19.117683,46.0198397 L23.7852293,48.8969744 C23.9565696,48.9951282 24.192901,48.9951282 24.3504553,48.8969744 L42.5499469,37.9916731 C42.7193178,37.8914744 42.8276364,37.6869872 42.8276364,37.4804551 L42.8276364,15.6718974 C42.8276364,15.4592308 42.7193178,15.2588333 42.546008,15.1504551 L24.3543942,4.25333333 C24.1850233,4.15108974 23.9624779,4.15108974 23.793107,4.25333333 L5.60543202,15.1545449 C5.42818343,15.2588333 5.31789541,15.4653654 5.31789541,15.6718974 L5.31789541,37.4804551 C5.31789541,37.6890321 5.42818343,37.8853397 5.60346259,37.9855385 L10.5900563,40.975141 C13.2960515,42.3799679 14.9523411,40.7256667 14.9523411,39.0631859 L14.9523411,17.5306859 C14.9523411,17.226 15.1886726,16.98675 15.4821175,16.98675 L17.790288,16.98675 C18.0778246,16.98675 18.3161255,17.226 18.3161255,17.5306859 L18.3161255,39.0631859 C18.3161255,42.8114359 16.3506356,44.962641 12.9277683,44.962641 C11.8760933,44.962641 11.0469638,44.962641 8.73485438,43.7786603 L3.9629284,40.9260641 C2.78520998,40.2185385 2.05455189,38.8955064 2.05455189,37.4784103 L2.05455189,15.6698526 C2.05455189,14.2527564 2.78520998,12.9317692 3.9629284,12.2262885 L22.1643894,1.30667308 C23.3165052,0.629820513 24.8467514,0.629820513 25.9890201,1.30667308 L44.1885117,12.2262885 C45.3681995,12.9338141 46.100827,14.2548013 46.100827,15.6698526 L46.100827,37.4784103 C46.100827,38.8955064 45.3681995,40.2124038 44.1885117,40.9260641 L25.9890201,51.8354551 C25.4060692,52.1851282 24.7463105,52.3650769 24.0727659,52.3650769 L24.0668576,52.3671218 Z" id="Shape"></path>
                            <path d="M29.6895768,37.3434487 C21.7232373,37.3434487 20.0551311,33.5461218 20.0551311,30.3622564 C20.0551311,30.0596154 20.2875237,29.8183205 20.5789992,29.8183205 L22.9324666,29.8183205 C23.1944006,29.8183205 23.4149767,30.0146282 23.4543652,30.2804615 C23.8088624,32.7670256 24.8664457,34.0246218 29.685638,34.0246218 C33.5181464,34.0246218 35.1508029,33.1228333 35.1508029,31.0125256 C35.1508029,29.7937821 34.6899566,28.8919936 28.730465,28.2846667 C23.751749,27.7734487 20.6695929,26.6303654 20.6695929,22.4956346 C20.6695929,18.6819487 23.765535,16.4080513 28.9549799,16.4080513 C34.7864586,16.4080513 37.6697023,18.5081346 38.0360161,23.0191218 C38.0498021,23.1724872 37.9966275,23.3217628 37.8961866,23.4383205 C37.7957458,23.5487436 37.6578858,23.6141795 37.5101786,23.6141795 L35.146864,23.6141795 C34.9026549,23.6141795 34.6879871,23.4342308 34.636782,23.1868013 C34.0695865,20.5693654 32.6909863,19.7330128 28.9530105,19.7330128 C24.7660048,19.7330128 24.2795559,21.2462179 24.2795559,22.3811218 C24.2795559,23.7573205 24.8546291,24.1581154 30.5049204,24.9331218 C36.0980981,25.6999487 38.756827,26.7878205 38.756827,30.8673397 C38.756827,34.9857115 35.4521255,37.3434487 29.685638,37.3434487 L29.6895768,37.3434487 Z" id="Shape"></path>
                        </g>
                    </g>
                </g>
            </g>
        </g>
    </g>
</svg>