<?xml version="1.0" encoding="UTF-8" standalone="no"?>
<svg width="49px" height="44px" viewBox="0 0 49 44" version="1.1" xmlns="http://www.w3.org/2000/svg" xmlns:xlink="http://www.w3.org/1999/xlink" xmlns:sketch="http://www.bohemiancoding.com/sketch/ns">
    <!-- Generator: Sketch 3.4.4 (17249) - http://www.bohemiancoding.com/sketch -->
    <title>Layer_1</title>
    <desc>Created with Sketch.</desc>
    <defs></defs>
    <g id="Page-1" stroke="none" stroke-width="1" fill="none" fill-rule="evenodd" sketch:type="MSPage">
        <g id="Desktop-HD" sketch:type="MSArtboardGroup" transform="translate(-231.000000, -2688.000000)">
            <g id="Group" sketch:type="MSLayerGroup" transform="translate(232.000000, 2680.000000)">
                <g id="React" transform="translate(0.000000, 9.666667)" sketch:type="MSShapeGroup">
                    <g id="Layer_1">
                        <path d="M27.3368199,20.4665625 C27.3368199,22.852841 25.4162068,24.7873751 23.0471002,24.7873751 C20.6779935,24.7873751 18.7573804,22.852841 18.7573804,20.4665625 C18.7573804,18.0802841 20.6779935,16.14575 23.0471002,16.14575 C25.4162068,16.14575 27.3368199,18.0802841 27.3368199,20.4665625 L27.3368199,20.4665625 Z" id="Shape" fill="#EF8E8E"></path>
                        <path d="M23.0471002,11.6814472 C28.8066306,11.6814472 34.1570869,12.51388 38.1913064,13.9127804 C43.0519684,15.5982306 46.0405008,18.1531488 46.0405008,20.4665625 C46.0405008,22.8773877 42.8731695,25.5914715 37.6535416,27.3334221 C33.7072252,28.6504142 28.514447,29.3378064 23.0471002,29.3378064 C17.4416566,29.3378064 12.1336126,28.6925311 8.14377218,27.3188664 C3.09481984,25.5806193 0.0536995236,22.8313089 0.0536995236,20.4665625 C0.0536995236,18.1719249 2.90712803,15.6368162 7.69946848,13.9538637 C11.7487375,12.531967 17.2313049,11.6814472 23.0471002,11.6814472 L23.0471002,11.6814472 Z" id="Shape" stroke="#EF8E8E" stroke-width="2" fill-opacity="0" fill="#000000"></path>
                        <path d="M15.4545177,16.0993267 C18.3318031,11.0738962 21.7206877,6.82121139 24.9391533,3.99998358 C28.8169772,0.600832984 32.5072802,-0.730456499 34.4968989,0.425216806 C36.5703162,1.62955276 37.3222805,5.74916894 36.2128039,11.1737193 C35.3739626,15.27499 33.3710046,20.149351 30.6396826,24.919927 C27.8393551,29.8109969 24.6326898,34.1200959 21.4580047,36.9152268 C17.440716,40.4523553 13.556992,41.7323122 11.5231653,40.5509726 C9.5497078,39.4046012 8.79492166,35.6484476 9.74167504,30.6261177 C10.5416098,26.3825625 12.5490998,21.1739366 15.4545177,16.0993267 L15.4545177,16.0993267 Z" id="Shape" stroke="#EF8E8E" stroke-width="2" fill-opacity="0" fill="#000000"></path>
                        <path d="M15.4617859,24.932674 C12.5762061,19.9120667 10.6107864,14.8309111 9.79152667,10.6133667 C8.80441313,5.53186653 9.50233592,1.64660622 11.4900734,0.487573899 C13.5614384,-0.720293326 17.4803921,0.680846436 21.5920825,4.35819235 C24.7008403,7.13842296 27.8930546,11.3205685 30.6323289,16.0865797 C33.4407798,20.9729125 35.5457498,25.9232388 36.3644965,30.0895367 C37.4006066,35.3617255 36.5619363,39.3900454 34.5300763,40.5748302 C32.5585,41.7244745 28.9507129,40.5073054 25.1036722,37.1728374 C21.8532264,34.3554853 18.3756691,30.0023746 15.4617859,24.932674 L15.4617859,24.932674 Z" id="Shape" stroke="#EF8E8E" stroke-width="2" fill-opacity="0" fill="#000000"></path>
                    </g>
                </g>
            </g>
        </g>
    </g>
</svg>