<?xml version="1.0" encoding="UTF-8" standalone="no"?>
<svg width="46px" height="45px" viewBox="0 0 46 45" version="1.1" xmlns="http://www.w3.org/2000/svg" xmlns:xlink="http://www.w3.org/1999/xlink" xmlns:sketch="http://www.bohemiancoding.com/sketch/ns">
    <!-- Generator: Sketch 3.4.4 (17249) - http://www.bohemiancoding.com/sketch -->
    <title>icon-ror-link</title>
    <desc>Created with Sketch.</desc>
    <defs></defs>
    <g id="Page-1" stroke="none" stroke-width="1" fill="none" fill-rule="evenodd" sketch:type="MSPage">
        <g id="Desktop-HD" sketch:type="MSArtboardGroup" transform="translate(-436.000000, -2687.000000)" fill="#EF8E8E">
            <g id="Group" sketch:type="MSLayerGroup" transform="translate(232.000000, 2680.000000)">
                <g id="RoR" transform="translate(203.221239, 4.833333)" sketch:type="MSShapeGroup">
                    <g id="icon-ror-link">
                        <g id="icon-ror">
                            <path d="M6.5684827,46.1835985 L28.3739984,46.1835985 C28.3739984,46.1835985 23.5370813,35.1543712 24.7660048,25.0307348 C25.9949284,14.9070985 33.9474819,10.2980758 38.4555044,9.80375758 C42.963527,9.30943939 45.4233435,12.1092576 45.4233435,12.1092576 L46.4080579,10.6282803 C46.4080579,10.6282803 39.932576,4.04396212 31.7338439,4.78543939 C23.5351118,5.52691667 17.8789123,10.9584848 14.3556042,17.542803 C10.8303266,24.1271212 8.78015125,28.7361439 7.38776508,35.6506667 C5.99537892,42.5651894 6.5684827,46.1855758 6.5684827,46.1855758 L6.5684827,46.1835985 Z" id="Shape"></path>
                            <path d="M2.22392277,35.1543712 L6.48576669,35.4845758 L5.74723089,39.7633939 L1.72959614,39.2690758 L2.22195334,35.1543712 L2.22392277,35.1543712 Z" id="Shape"></path>
                            <path d="M8.94558327,26.1004394 L10.0937603,22.8913258 L6.3223041,21.4103485 L5.09338053,24.8666212 L8.94558327,26.1004394 L8.94558327,26.1004394 Z" id="Shape"></path>
                            <path d="M14.2748576,15.0712121 L16.4884956,12.4374848 L13.6190378,10.5452348 L11.3246533,13.0959167 L14.2748576,15.0712121 L14.2748576,15.0712121 Z" id="Shape"></path>
                            <path d="M20.0945197,4.86650758 L22.0619791,7.25307576 L24.7679743,5.68905303 L22.8005149,3.46659848 L20.0945197,4.86650758 L20.0945197,4.86650758 Z" id="Shape"></path>
                            <path d="M29.685638,2.14973485 L30.1779952,4.53630303 L33.5398101,4.45325758 L33.2109155,2.31384848 L29.685638,2.14973485 L29.685638,2.14973485 Z" id="Shape"></path>
                            <path d="M41.080753,4.70239394 L40.998037,6.18337121 L43.294391,7.41718939 L43.7867482,6.67571212 L41.0827224,4.70041667 L41.080753,4.70239394 Z" id="Shape"></path>
                            <path d="M40.5883958,11.039553 L40.5883958,12.2733712 L42.8020338,12.5205303 L42.8020338,11.5318939 L40.5883958,11.0375758 L40.5883958,11.039553 Z" id="Shape"></path>
                            <path d="M33.5398101,12.1092576 L34.6052711,14.084553 L36.1630893,12.8507348 L35.8361641,11.5338712 L33.5417796,12.1112348 L33.5398101,12.1092576 Z" id="Shape"></path>
                            <path d="M30.1779952,14.6599394 L31.8165599,17.129553 L30.833815,18.8576894 L28.4567144,16.2239621 L30.1779952,14.6599394 L30.1779952,14.6599394 Z" id="Shape"></path>
                            <path d="M26.8988962,21.4914167 L25.8334352,23.6308258 L28.620177,26.0173939 L29.2759968,23.3006212 L26.8988962,21.4894394 L26.8988962,21.4914167 Z" id="Shape"></path>
                            <path d="M25.7507192,28.9813258 L25.5872566,31.8622121 L29.0298182,33.3431894 L28.8663556,30.6264167 L25.7507192,28.9793485 L25.7507192,28.9813258 Z" id="Shape"></path>
                            <path d="M26.7354336,39.1880076 L27.5566854,42.1519394 L31.9012454,42.3990985 L30.3434272,39.1899848 L26.7354336,39.1899848 L26.7354336,39.1880076 Z" id="Shape"></path>
                        </g>
                    </g>
                </g>
            </g>
        </g>
    </g>
</svg>