<?xml version="1.0" encoding="UTF-8" standalone="no"?>
<svg width="52px" height="47px" viewBox="0 0 52 47" version="1.1" xmlns="http://www.w3.org/2000/svg" xmlns:xlink="http://www.w3.org/1999/xlink" xmlns:sketch="http://www.bohemiancoding.com/sketch/ns">
    <!-- Generator: Sketch 3.4.4 (17249) - http://www.bohemiancoding.com/sketch -->
    <title>Shape</title>
    <desc>Created with Sketch.</desc>
    <defs></defs>
    <g id="Page-1" stroke="none" stroke-width="1" fill="none" fill-rule="evenodd" sketch:type="MSPage">
        <g id="Desktop-HD" sketch:type="MSArtboardGroup" transform="translate(-1006.000000, -2688.000000)" fill="#EF8E8E">
            <g id="Group" sketch:type="MSLayerGroup" transform="translate(232.000000, 2680.000000)">
                <g id="UI-DESIGN-+-" transform="translate(771.831858, 0.000000)" sketch:type="MSShapeGroup">
                    <path d="M46.6681418,12 L37.5755861,8 L18.7236972,8 L9.68669716,12.0741111 L2.16814159,20.4258889 L28.1681416,54.9999999 L54.1681416,20.4258889 L46.6681418,12 L46.6681418,12 L46.6681418,12 Z M52.001475,20.6501111 L43.7792527,26.8027778 L37.9320305,18.0416667 L46.2051417,14.1481111 L52.001475,20.6501111 L52.001475,20.6501111 L52.001475,20.6501111 Z M40.7606972,27.7407777 L15.0940305,27.7407777 L20.2022527,18.6666667 L35.501475,18.7036667 L40.7606972,27.7407777 L40.7606972,27.7407777 L40.7606972,27.7407777 Z M20.4076971,9.3538889 L36.0688083,9.3538889 L43.7792527,12.7542223 L36.0358082,16.1271111 L20.3746973,16.1271111 L12.7093638,12.757 L20.4076971,9.3538889 L20.4076971,9.3538889 L20.4076971,9.3538889 Z M10.1134749,14.1481111 L17.8718083,18.037 L12.3162527,26.6296668 L4.3171416,20.6501111 L10.1134749,14.1481111 L10.1134749,14.1481111 L10.1134749,14.1481111 Z M7.29803049,25.1802224 L12.3531416,29.4423334 L24.3798084,49.2335556 L7.29803049,25.1802224 L7.29803049,25.1802224 L7.29803049,25.1802224 Z M15.7949194,30.5555555 L40.1652528,30.5555555 L28.1681416,52.6666668 L15.7949194,30.5555555 L15.7949194,30.5555555 L15.7949194,30.5555555 Z M31.9388082,49.2335556 L43.965475,29.4423334 L49.0205861,25.1802224 L31.9388082,49.2335556 L31.9388082,49.2335556 L31.9388082,49.2335556 Z" id="Shape"></path>
                </g>
            </g>
        </g>
    </g>
</svg>